<?xml version="1.0" encoding="UTF-8"?><svg id="Calque_1" xmlns="http://www.w3.org/2000/svg" viewBox="0 0 800 930.06"><defs><style>.cls-1{stroke-width:0px;}</style></defs><path class="cls-1" d="m519.14,744.2h-.09v72.73h130.95v-290.88c-47.25,12.18-92.16,34.12-130.86,63.89v154.27Z"/><path class="cls-1" d="m150,816.93h130.95v-227.52c-38.45-30.6-83.45-53.25-130.95-66.13v293.65Z"/><path class="cls-1" d="m628.1,346.35c-34.36,1-66.74,4.49-95.71,11.6-49.19,12.08-89.18,46.6-108.85,92.28v-195.43c28.62-9.82,49.28-36.93,49.28-68.84,0-40.15-32.67-72.82-72.82-72.82s-72.82,32.66-72.82,72.82c0,31.91,20.66,59.03,49.29,68.84v195.44c-19.67-45.68-59.66-80.2-108.85-92.28-35.06-8.61-75.09-11.92-117.61-11.92v135.27c47.35,11.47,89.47,32.37,131.02,57.23,28.36,15.91,52.71,39.62,71.72,65.93,9.63,13.33,17.95,27.6,24.78,42.56,3.38,7.4,6.4,14.97,9.03,22.66,2.37,6.91,6.82,16.34,6.82,23.69.6,2.54,2.51,4.66,5.06,5.24,3.73.86,7.3-1.45,8.13-4.99,7.59-32.48,22.18-63,42.5-89.45,10.15-13.21,21.63-25.37,34.06-36.45,14.39-12.83,30.15-22.89,46.29-33.49,36.34-23.86,78.19-40.25,120.59-49.99v-138.21h-20.75c-.38.12-.77.21-1.15.32Zm-228.1-134.65c-14.2,0-25.75-11.55-25.75-25.75s11.55-25.74,25.75-25.74,25.74,11.55,25.74,25.74-11.55,25.75-25.74,25.75Z"/></svg>